<?xml version="1.0" encoding="utf-8"?>
<!-- Generator: Adobe Illustrator 23.0.3, SVG Export Plug-In . SVG Version: 6.00 Build 0)  -->
<svg version="1.1" id="Layer_1" xmlns="http://www.w3.org/2000/svg" xmlns:xlink="http://www.w3.org/1999/xlink" x="0px" y="0px"
	 viewBox="0 0 540 288" style="enable-background:new 0 0 540 288;" xml:space="preserve">
<style type="text/css">
	.st0{opacity:0.49;}
	.st1{fill:#D7ECDB;}
	.st2{fill:#6C6764;}
</style>
<g class="st0">
	<rect class="st1" width="540" height="288"/>
	<g>
		<path class="st2" d="M0,247.42v0.01c0.02,0.01,0.04,0.01,0.06,0.02C0.04,247.44,0.02,247.43,0,247.42z"/>
		<path class="st2" d="M17.04,10.62C11.43,11.28,5.72,11.63,0,11.68v4.6c5.98-0.07,11.95-0.52,17.76-1.37
			C13.84,20.31,7.91,25.39,0,29.83v0.59c3.89-1.39,7.58-2.99,11.01-4.82c6.4-3.41,11.34-7.3,14.84-11.45
			c2.29,0.99,4.73,2.09,7.32,3.29c24.38,14.89,25.09,18.57,2.12,32.8c-3.4,1.58-6.54,3.01-9.45,4.27
			c-3.5-4.15-8.44-8.04-14.84-11.45C7.58,41.23,3.89,39.63,0,38.24v0.59c7.91,4.44,13.84,9.52,17.76,14.92
			C11.95,52.9,5.98,52.45,0,52.38v4.6c5.72,0.05,11.43,0.4,17.05,1.06C10.66,60.36,5.29,61.6,0,61.8v17.07
			c5.29,0.2,10.66,1.44,17.04,3.75C11.43,83.28,5.72,83.63,0,83.68v4.6c5.98-0.06,11.95-0.52,17.76-1.37
			C13.84,92.31,7.91,97.39,0,101.83v0.59c3.89-1.38,7.58-2.99,11.01-4.82c6.4-3.41,11.34-7.3,14.84-11.45
			c2.3,0.99,4.73,2.09,7.32,3.29c24.38,14.89,25.09,18.57,2.13,32.8c-3.4,1.59-6.54,3.01-9.45,4.27c-3.5-4.15-8.44-8.04-14.84-11.45
			c-3.43-1.83-7.13-3.43-11.01-4.82v0.59c7.91,4.44,13.84,9.52,17.76,14.92c-5.81-0.85-11.78-1.31-17.76-1.37v4.6
			c5.72,0.05,11.43,0.4,17.05,1.06C10.66,132.36,5.29,133.6,0,133.8v17.07c5.29,0.2,10.66,1.44,17.04,3.75
			c-5.61,0.66-11.33,1.01-17.04,1.06v4.6c5.98-0.06,11.95-0.52,17.76-1.37c-3.93,5.4-9.85,10.48-17.76,14.92v0.59
			c3.89-1.38,7.58-2.99,11.01-4.82c6.4-3.41,11.34-7.3,14.84-11.46c2.3,0.99,4.73,2.09,7.33,3.29c24.37,14.88,25.09,18.57,2.12,32.8
			c-3.4,1.58-6.54,3.01-9.45,4.27c-3.5-4.15-8.44-8.04-14.84-11.45c-3.43-1.83-7.13-3.43-11.01-4.82v0.59
			c7.91,4.44,13.84,9.52,17.76,14.92c-5.81-0.85-11.78-1.31-17.76-1.37v4.6c5.72,0.05,11.43,0.4,17.05,1.06
			C10.66,204.36,5.29,205.6,0,205.8v17.07c5.29,0.2,10.66,1.44,17.04,3.75c-5.61,0.66-11.33,1.01-17.04,1.06v4.6
			c5.98-0.06,11.95-0.52,17.76-1.37c-3.93,5.4-9.85,10.48-17.76,14.92v0.59c3.89-1.38,7.58-2.99,11.01-4.82
			c6.4-3.41,11.34-7.3,14.84-11.46c2.3,0.99,4.73,2.09,7.32,3.29c24.38,14.89,25.09,18.57,2.13,32.8c-3.4,1.58-6.54,3.01-9.45,4.27
			c-3.5-4.15-8.44-8.05-14.84-11.46c-3.43-1.83-7.13-3.43-11.01-4.82v0.59c7.91,4.44,13.84,9.52,17.76,14.92
			c-5.81-0.85-11.78-1.31-17.76-1.37v4.6c5.72,0.05,11.43,0.4,17.05,1.06C10.66,276.36,5.29,277.6,0,277.8V288h14.69
			c-1.01-3.66,1.28-7.16,6.86-11.55c1.57,3.8,2.21,7.68,1.95,11.55h8.62c0.32-4.01-0.51-8.04-2.52-11.93
			c10.75,2.22,20.83,5.64,29.51,10.27c-1.08,0.57-2.18,1.13-3.3,1.67h1.76c0.65-0.49,1.28-0.98,1.88-1.48
			c0.39,0.21,0.78,0.42,1.17,0.64c-0.31-0.28-0.63-0.55-0.95-0.82c0.32-0.27,0.64-0.55,0.95-0.82c-0.38,0.21-0.78,0.43-1.17,0.64
			c-2.76-2.3-6.02-4.47-9.79-6.48c-6.4-3.41-13.69-6.05-21.48-7.91c1.94-1.28,4.09-2.63,6.44-4.08
			c28.15-13.07,34.77-12.99,63.18,0.24c2.2,1.36,4.22,2.63,6.05,3.84c-7.79,1.87-15.08,4.5-21.48,7.91
			c-3.77,2.01-7.03,4.19-9.79,6.48c-0.39-0.21-0.78-0.43-1.17-0.64c0.31,0.28,0.63,0.55,0.96,0.82c-0.32,0.27-0.65,0.55-0.96,0.82
			c0.38-0.21,0.78-0.43,1.17-0.64c0.6,0.5,1.23,0.99,1.88,1.48h1.76c-1.12-0.54-2.22-1.09-3.3-1.67
			c8.68-4.62,18.76-8.04,29.51-10.27c-2.01,3.89-2.84,7.92-2.52,11.93h8.62c-0.26-3.87,0.38-7.75,1.95-11.55
			c5.58,4.39,7.87,7.89,6.86,11.55h32.35c-1-3.66,1.28-7.16,6.86-11.55c1.57,3.8,2.21,7.68,1.95,11.55h8.62
			c0.32-4.01-0.51-8.04-2.52-11.93c10.75,2.22,20.83,5.64,29.51,10.27c-1.08,0.57-2.18,1.13-3.3,1.67h1.76
			c0.65-0.49,1.28-0.98,1.88-1.48c0.39,0.21,0.78,0.42,1.17,0.64c-0.31-0.28-0.63-0.55-0.95-0.82c0.32-0.27,0.64-0.55,0.95-0.82
			c-0.38,0.21-0.78,0.43-1.17,0.64c-2.76-2.3-6.02-4.47-9.79-6.48c-6.4-3.41-13.69-6.05-21.48-7.91c1.94-1.28,4.09-2.63,6.44-4.08
			c28.15-13.07,34.77-12.99,63.19,0.24c2.2,1.36,4.22,2.63,6.05,3.84c-7.79,1.87-15.08,4.5-21.48,7.91
			c-3.77,2.01-7.03,4.19-9.79,6.48c-0.39-0.21-0.78-0.43-1.17-0.64c0.31,0.28,0.63,0.55,0.96,0.82c-0.32,0.27-0.65,0.55-0.96,0.82
			c0.38-0.21,0.78-0.43,1.17-0.64c0.6,0.5,1.23,0.99,1.88,1.48h1.76c-1.12-0.54-2.22-1.09-3.3-1.67
			c8.68-4.62,18.76-8.04,29.51-10.27c-2.01,3.89-2.84,7.92-2.52,11.93h8.62c-0.26-3.87,0.38-7.75,1.95-11.55
			c5.58,4.39,7.87,7.89,6.86,11.55h32.35c-1-3.66,1.28-7.16,6.86-11.55c1.57,3.8,2.21,7.68,1.95,11.55h8.62
			c0.32-4.01-0.51-8.04-2.52-11.93c10.75,2.22,20.83,5.64,29.51,10.27c-1.08,0.57-2.18,1.13-3.3,1.67h1.76
			c0.65-0.49,1.28-0.98,1.88-1.48c0.39,0.21,0.78,0.42,1.17,0.64c-0.31-0.28-0.63-0.55-0.95-0.82c0.32-0.27,0.64-0.55,0.95-0.82
			c-0.38,0.21-0.78,0.43-1.17,0.64c-2.76-2.3-6.02-4.47-9.79-6.48c-6.4-3.41-13.69-6.05-21.48-7.91c1.94-1.28,4.09-2.63,6.44-4.08
			c28.15-13.07,34.77-12.99,63.19,0.24c2.2,1.36,4.22,2.63,6.05,3.84c-7.79,1.87-15.08,4.5-21.48,7.91
			c-3.77,2.01-7.03,4.19-9.79,6.48c-0.39-0.21-0.78-0.43-1.17-0.64c0.31,0.28,0.63,0.55,0.96,0.82c-0.32,0.27-0.65,0.55-0.96,0.82
			c0.38-0.21,0.78-0.43,1.17-0.64c0.6,0.5,1.23,0.99,1.88,1.48h1.76c-1.12-0.54-2.22-1.09-3.3-1.67
			c8.68-4.62,18.76-8.04,29.51-10.27c-2.01,3.89-2.84,7.92-2.52,11.93h8.62c-0.26-3.87,0.38-7.75,1.95-11.55
			c5.58,4.39,7.87,7.89,6.86,11.55h32.34c-1-3.66,1.28-7.16,6.86-11.55c1.57,3.8,2.21,7.68,1.95,11.55h8.62
			c0.32-4.01-0.51-8.04-2.52-11.93c10.75,2.22,20.83,5.64,29.51,10.27c-1.08,0.57-2.18,1.13-3.3,1.67h1.75
			c0.65-0.49,1.28-0.98,1.88-1.48c0.39,0.21,0.78,0.42,1.17,0.64c-0.31-0.28-0.63-0.55-0.95-0.82c0.32-0.27,0.64-0.55,0.95-0.82
			c-0.38,0.21-0.78,0.43-1.17,0.64c-2.76-2.3-6.02-4.47-9.79-6.48c-6.4-3.41-13.69-6.05-21.48-7.91c1.94-1.28,4.09-2.63,6.44-4.08
			c28.15-13.07,34.77-12.99,63.19,0.24c2.2,1.36,4.22,2.63,6.05,3.84c-7.79,1.87-15.09,4.5-21.48,7.91
			c-3.77,2.01-7.03,4.19-9.79,6.48c-0.39-0.21-0.78-0.43-1.16-0.64c0.31,0.28,0.63,0.55,0.95,0.82c-0.32,0.27-0.64,0.55-0.96,0.82
			c0.38-0.21,0.78-0.43,1.17-0.64c0.6,0.5,1.23,0.99,1.88,1.48h1.76c-1.12-0.54-2.22-1.09-3.3-1.67
			c8.68-4.62,18.76-8.04,29.51-10.27c-2.01,3.89-2.84,7.92-2.52,11.93h8.62c-0.26-3.87,0.38-7.75,1.95-11.55
			c5.58,4.39,7.87,7.89,6.86,11.55h17.6v-10.2c-6.26,0.22-12.4-1.03-19.96-3.75c6.56-0.77,13.26-1.12,19.96-1.06v-4.6
			c-6.95-0.07-13.92,0.38-20.68,1.37c4.17-5.73,10.58-11.11,19.25-15.74c0.48,0.26,0.96,0.52,1.43,0.78v-0.58
			c-0.36-0.13-0.72-0.26-1.09-0.38c0.36-0.19,0.72-0.38,1.09-0.56c0.02-0.01,0.04-0.02,0.06-0.03v-0.01
			c-0.02,0.01-0.04,0.01-0.06,0.02c-0.48,0.15-0.95,0.31-1.43,0.47c-0.51-0.17-1.02-0.35-1.54-0.51c0.4,0.2,0.8,0.41,1.2,0.62
			c-4.31,1.47-8.39,3.21-12.16,5.22c-6.4,3.41-11.34,7.3-14.84,11.46c-3.06-1.33-6.36-2.83-9.97-4.51
			c-22.45-13.96-21.73-17.72,2.14-32.33c2.78-1.29,5.38-2.46,7.83-3.52c3.5,4.15,8.44,8.05,14.84,11.46
			c3.77,2.01,7.85,3.75,12.16,5.22c-0.4,0.21-0.79,0.42-1.2,0.62c0.52-0.17,1.03-0.34,1.54-0.51c0.47,0.16,0.95,0.32,1.43,0.47
			c0.02,0.01,0.04,0.01,0.06,0.02v-0.01c-0.02-0.01-0.04-0.02-0.06-0.03c-0.37-0.18-0.72-0.37-1.09-0.56
			c0.37-0.12,0.72-0.25,1.09-0.38v-0.58c-0.47,0.26-0.95,0.52-1.43,0.78c-8.66-4.63-15.08-10.01-19.25-15.74
			c6.75,0.99,13.72,1.44,20.68,1.37v-4.6c-6.69,0.06-13.39-0.29-19.96-1.06c7.55-2.73,13.7-3.98,19.96-3.75V205.8
			c-6.26,0.23-12.4-1.02-19.96-3.75c6.56-0.77,13.26-1.12,19.96-1.06v-4.6c-6.95-0.07-13.92,0.38-20.68,1.37
			c4.17-5.73,10.58-11.11,19.25-15.74c0.48,0.26,0.96,0.52,1.43,0.78v-0.58c-0.36-0.13-0.72-0.26-1.09-0.38
			c0.36-0.19,0.72-0.38,1.09-0.56c0.02-0.01,0.04-0.02,0.06-0.03v-0.01c-0.02,0.01-0.04,0.01-0.06,0.02
			c-0.48,0.15-0.95,0.31-1.43,0.47c-0.51-0.17-1.02-0.34-1.54-0.51c0.4,0.2,0.8,0.41,1.2,0.62c-4.31,1.47-8.39,3.21-12.16,5.22
			c-6.4,3.41-11.34,7.3-14.84,11.45c-3.06-1.32-6.36-2.83-9.97-4.51c-22.45-13.96-21.73-17.72,2.14-32.33
			c2.78-1.29,5.39-2.46,7.83-3.52c3.5,4.15,8.44,8.05,14.84,11.46c3.77,2.01,7.85,3.75,12.16,5.22c-0.4,0.21-0.79,0.42-1.2,0.62
			c0.52-0.17,1.03-0.34,1.54-0.51c0.47,0.16,0.95,0.32,1.43,0.47c0.02,0.01,0.04,0.01,0.06,0.02v-0.01
			c-0.02-0.01-0.04-0.02-0.06-0.03c-0.37-0.18-0.72-0.37-1.09-0.56c0.37-0.12,0.72-0.25,1.09-0.38v-0.58
			c-0.47,0.26-0.95,0.52-1.43,0.78c-8.66-4.63-15.08-10.01-19.25-15.74c6.75,0.99,13.72,1.44,20.68,1.37v-4.6
			c-6.69,0.06-13.39-0.29-19.96-1.06c7.55-2.73,13.7-3.98,19.96-3.75V133.8c-6.26,0.23-12.4-1.02-19.96-3.75
			c6.56-0.77,13.26-1.13,19.96-1.06v-4.6c-6.95-0.07-13.92,0.38-20.68,1.37c4.17-5.73,10.58-11.11,19.25-15.74
			c0.48,0.26,0.96,0.52,1.43,0.78v-0.58c-0.36-0.13-0.72-0.26-1.09-0.38c0.36-0.19,0.72-0.38,1.09-0.56
			c0.02-0.01,0.04-0.02,0.06-0.03v-0.01c-0.02,0.01-0.04,0.01-0.06,0.02c-0.48,0.15-0.95,0.31-1.43,0.47
			c-0.51-0.17-1.02-0.34-1.54-0.51c0.4,0.2,0.8,0.41,1.2,0.62c-4.31,1.47-8.39,3.21-12.16,5.22c-6.4,3.41-11.34,7.3-14.84,11.45
			c-3.06-1.32-6.36-2.83-9.97-4.51c-22.45-13.96-21.73-17.72,2.14-32.33c2.78-1.29,5.38-2.46,7.83-3.52
			c3.5,4.15,8.44,8.04,14.84,11.45c3.77,2.01,7.85,3.75,12.16,5.22c-0.4,0.21-0.79,0.42-1.2,0.62c0.52-0.17,1.03-0.34,1.54-0.51
			c0.47,0.16,0.95,0.32,1.43,0.47c0.02,0.01,0.04,0.01,0.06,0.02v-0.01c-0.02-0.01-0.04-0.02-0.06-0.03
			c-0.37-0.18-0.72-0.37-1.09-0.56c0.37-0.12,0.72-0.25,1.09-0.38v-0.58c-0.47,0.26-0.95,0.52-1.43,0.78
			c-8.66-4.63-15.08-10.01-19.25-15.74c6.75,0.99,13.72,1.44,20.68,1.37v-4.6c-6.69,0.06-13.39-0.29-19.96-1.06
			c7.55-2.73,13.7-3.98,19.96-3.75V61.8c-6.26,0.23-12.4-1.02-19.96-3.75c6.56-0.77,13.26-1.12,19.96-1.06v-4.6
			c-6.95-0.07-13.92,0.38-20.68,1.37c4.17-5.73,10.58-11.11,19.25-15.74c0.48,0.26,0.96,0.52,1.43,0.78v-0.58
			c-0.36-0.13-0.72-0.26-1.09-0.38c0.36-0.19,0.72-0.38,1.09-0.56c0.02-0.01,0.04-0.02,0.06-0.03v-0.01
			c-0.02,0.01-0.04,0.01-0.06,0.02c-0.48,0.15-0.95,0.31-1.43,0.47c-0.51-0.17-1.02-0.34-1.54-0.51c0.4,0.2,0.8,0.41,1.2,0.62
			c-4.31,1.47-8.39,3.21-12.16,5.22c-6.4,3.41-11.34,7.3-14.84,11.45c-3.06-1.32-6.36-2.83-9.97-4.51
			c-22.45-13.96-21.73-17.72,2.14-32.33c2.78-1.29,5.39-2.46,7.83-3.52c3.5,4.15,8.44,8.04,14.84,11.45
			c3.77,2.01,7.85,3.75,12.16,5.22c-0.4,0.21-0.79,0.42-1.2,0.62c0.52-0.17,1.03-0.34,1.54-0.51c0.47,0.16,0.95,0.32,1.43,0.47
			c0.02,0.01,0.04,0.01,0.06,0.02v-0.01c-0.02-0.01-0.04-0.02-0.06-0.03c-0.37-0.18-0.72-0.37-1.09-0.56
			c0.37-0.12,0.72-0.25,1.09-0.38v-0.58c-0.47,0.26-0.95,0.52-1.43,0.78c-8.66-4.63-15.08-10.01-19.25-15.74
			c6.75,0.99,13.72,1.44,20.68,1.37v-4.6c-6.69,0.06-13.39-0.29-19.96-1.06c7.55-2.73,13.7-3.98,19.96-3.75V0h-17.6
			c-0.7,2.54-2.98,5.16-6.86,8.22c-1.12-2.71-1.76-5.46-1.95-8.22h-8.62c0.23,2.9,1.07,5.78,2.52,8.6
			c-9.41-1.95-18.31-4.81-26.21-8.6h-1.76c2.33,1.75,4.96,3.43,7.91,5c6.39,3.41,13.69,6.05,21.48,7.91
			c-2.41,1.59-5.15,3.29-8.2,5.15c-25.93,11.91-33.22,12-58.9,0.24c-3.21-1.95-6.07-3.73-8.58-5.39c7.79-1.87,15.09-4.5,21.48-7.91
			c2.95-1.57,5.58-3.25,7.91-5h-1.75c-7.9,3.79-16.8,6.65-26.21,8.6c1.45-2.82,2.29-5.7,2.52-8.6h-8.62
			c-0.18,2.76-0.83,5.51-1.95,8.22c-3.88-3.05-6.16-5.67-6.86-8.22h-32.34c-0.7,2.54-2.98,5.16-6.86,8.22
			c-1.12-2.71-1.76-5.46-1.95-8.22h-8.62c0.23,2.9,1.07,5.78,2.52,8.6c-9.41-1.95-18.31-4.81-26.21-8.6h-1.76
			c2.33,1.75,4.96,3.43,7.91,5c6.4,3.41,13.69,6.05,21.48,7.91c-2.41,1.59-5.15,3.29-8.19,5.15c-25.93,11.91-33.22,12-58.9,0.24
			c-3.21-1.95-6.07-3.73-8.58-5.39c7.79-1.87,15.09-4.5,21.48-7.91c2.95-1.57,5.58-3.25,7.91-5h-1.76c-7.9,3.79-16.8,6.65-26.21,8.6
			c1.45-2.82,2.29-5.7,2.52-8.6h-8.62c-0.19,2.76-0.83,5.51-1.95,8.22c-3.88-3.05-6.16-5.67-6.86-8.22h-32.35
			c-0.7,2.54-2.98,5.16-6.86,8.22c-1.12-2.71-1.76-5.46-1.95-8.22h-8.62c0.23,2.9,1.07,5.78,2.52,8.6
			c-9.41-1.95-18.31-4.81-26.21-8.6h-1.76c2.33,1.75,4.96,3.43,7.91,5c6.4,3.41,13.69,6.05,21.48,7.91
			c-2.41,1.59-5.15,3.29-8.19,5.15c-25.93,11.91-33.22,12-58.9,0.24c-3.21-1.95-6.07-3.73-8.58-5.39c7.79-1.87,15.09-4.5,21.48-7.91
			c2.95-1.57,5.58-3.25,7.91-5h-1.76c-7.9,3.79-16.8,6.65-26.21,8.6c1.45-2.82,2.29-5.7,2.52-8.6h-8.62
			c-0.19,2.76-0.83,5.51-1.95,8.22c-3.88-3.05-6.16-5.67-6.86-8.22h-32.35c-0.7,2.54-2.98,5.16-6.86,8.22
			c-1.12-2.71-1.76-5.46-1.95-8.22h-8.62c0.23,2.9,1.07,5.78,2.52,8.6C93.02,6.65,84.12,3.79,76.22,0h-1.76
			c2.33,1.75,4.96,3.43,7.91,5c6.4,3.41,13.69,6.05,21.48,7.91c-2.41,1.59-5.15,3.29-8.19,5.15c-25.93,11.91-33.22,12-58.9,0.24
			c-3.21-1.95-6.07-3.73-8.58-5.39c7.79-1.87,15.09-4.5,21.48-7.91c2.95-1.57,5.58-3.25,7.91-5h-1.76c-7.9,3.79-16.8,6.65-26.21,8.6
			c1.45-2.82,2.29-5.7,2.52-8.6H23.5c-0.19,2.76-0.83,5.51-1.95,8.22C17.67,5.16,15.39,2.54,14.69,0H0v6.87
			C5.29,7.07,10.66,8.31,17.04,10.62z M21.55,80.22c-9.45-7.44-9.45-12.32,0-19.77C24.24,66.96,24.24,73.71,21.55,80.22z M23.5,144
			c-0.19,2.76-0.83,5.51-1.95,8.22c-3.88-3.05-6.16-5.67-6.86-8.22c-1.01-3.66,1.28-7.16,6.86-11.55
			C23.12,136.25,23.76,140.13,23.5,144z M21.55,224.22c-9.45-7.45-9.45-12.32,0-19.76C24.24,210.96,24.24,217.71,21.55,224.22z
			 M515.48,204.45c9.46,7.45,9.46,12.32,0,19.77C512.8,217.71,512.8,210.96,515.48,204.45z M515.48,132.45
			c5.58,4.39,7.87,7.89,6.86,11.55c-0.7,2.54-2.98,5.16-6.86,8.22c-1.12-2.71-1.76-5.46-1.95-8.22
			C513.27,140.13,513.92,136.25,515.48,132.45z M515.48,60.45c9.46,7.45,9.46,12.32,0,19.77C512.8,73.71,512.8,66.96,515.48,60.45z
			 M36.76,162.3c-3.21-1.95-6.07-3.73-8.58-5.39c7.79-1.87,15.09-4.5,21.48-7.91c2.95-1.57,5.58-3.25,7.91-5
			c0.65-0.49,1.28-0.98,1.88-1.48c0.39,0.21,0.78,0.42,1.17,0.64c-0.31-0.28-0.63-0.55-0.95-0.82c0.32-0.27,0.64-0.55,0.95-0.82
			c-0.38,0.21-0.78,0.43-1.17,0.64c-2.76-2.3-6.02-4.48-9.79-6.48c-6.4-3.41-13.69-6.05-21.48-7.91c1.94-1.28,4.09-2.63,6.44-4.08
			c28.15-13.07,34.77-12.99,63.18,0.24c2.2,1.36,4.22,2.63,6.05,3.84c-7.79,1.87-15.08,4.5-21.48,7.91
			c-3.77,2.01-7.03,4.19-9.79,6.48c-0.39-0.21-0.78-0.43-1.17-0.64c0.31,0.28,0.63,0.55,0.96,0.82c-0.32,0.27-0.65,0.55-0.96,0.82
			c0.38-0.22,0.78-0.43,1.17-0.64c0.6,0.5,1.23,0.99,1.88,1.48c2.33,1.75,4.96,3.43,7.91,5c6.4,3.41,13.69,6.05,21.48,7.91
			c-2.41,1.59-5.15,3.29-8.19,5.15C69.73,173.98,62.44,174.06,36.76,162.3z M29.6,132.07c10.75,2.22,20.83,5.64,29.51,10.27
			c-1.08,0.57-2.18,1.13-3.3,1.67c-7.9,3.79-16.8,6.65-26.21,8.6c1.45-2.82,2.29-5.7,2.52-8.6
			C32.44,139.99,31.61,135.96,29.6,132.07z M152.04,82.62c-12.2,1.43-24.86,1.43-37.06,0C128.94,77.57,138.09,77.57,152.04,82.62z
			 M114.99,58.05c12.2-1.43,24.86-1.43,37.06,0C138.09,63.09,128.95,63.09,114.99,58.05z M152.76,86.91
			c-4.17,5.73-10.58,11.11-19.25,15.74c-8.66-4.63-15.08-10.01-19.25-15.74C126.85,88.76,140.18,88.76,152.76,86.91z M156.55,60.45
			c2.69,6.5,2.69,13.26,0,19.77C147.1,72.77,147.1,67.9,156.55,60.45z M114.27,53.75c4.17-5.73,10.58-11.11,19.25-15.74
			c8.66,4.63,15.08,10.01,19.25,15.74C140.18,51.91,126.85,51.91,114.27,53.75z M110.48,80.22c-2.69-6.5-2.69-13.26,0-19.77
			C119.94,67.9,119.94,72.77,110.48,80.22z M121.01,97.61c3.77,2.01,7.85,3.75,12.16,5.22c-0.4,0.21-0.79,0.42-1.2,0.62
			c0.52-0.17,1.03-0.34,1.54-0.51c0.51,0.17,1.02,0.34,1.54,0.51c-0.4-0.2-0.8-0.41-1.2-0.62c4.31-1.47,8.39-3.21,12.16-5.22
			c6.4-3.41,11.34-7.3,14.84-11.45c2.3,0.99,4.73,2.09,7.32,3.29c24.38,14.89,25.09,18.57,2.13,32.8c-3.4,1.59-6.54,3.01-9.45,4.27
			c-3.5-4.15-8.44-8.04-14.84-11.45c-3.76-2.01-7.85-3.75-12.16-5.22c0.4-0.21,0.8-0.42,1.2-0.62c-0.52,0.16-1.03,0.34-1.54,0.51
			c-0.51-0.17-1.02-0.34-1.54-0.51c0.4,0.2,0.8,0.41,1.2,0.62c-4.31,1.47-8.39,3.21-12.16,5.22c-6.39,3.41-11.34,7.3-14.83,11.45
			c-3.06-1.32-6.36-2.83-9.97-4.51c-22.45-13.96-21.73-17.72,2.14-32.33c2.78-1.29,5.39-2.46,7.83-3.52
			C109.68,90.31,114.62,94.2,121.01,97.61z M269.94,78.86c5.31,0.19,10.7,1.44,17.1,3.75c-5.63,0.66-11.36,1.01-17.1,1.06
			c-6.69,0.06-13.39-0.29-19.95-1.06C257.54,79.89,263.68,78.64,269.94,78.86z M249.99,58.05c6.56-0.77,13.26-1.12,19.95-1.06
			c5.74,0.05,11.47,0.4,17.11,1.06c-6.41,2.32-11.8,3.57-17.11,3.75C263.68,62.03,257.54,60.78,249.99,58.05z M269.94,88.28
			c6-0.06,11.99-0.52,17.82-1.37c-3.94,5.41-9.88,10.51-17.82,14.96c-0.47,0.26-0.94,0.52-1.42,0.78
			c-8.66-4.63-15.08-10.01-19.25-15.74C256.02,87.9,262.99,88.36,269.94,88.28z M291.55,60.45c2.69,6.5,2.69,13.26,0,19.77
			C282.1,72.77,282.1,67.9,291.55,60.45z M269.94,52.38c-6.96-0.07-13.92,0.38-20.68,1.37c4.17-5.73,10.58-11.11,19.25-15.74
			c0.48,0.26,0.95,0.52,1.42,0.78c7.95,4.45,13.89,9.54,17.82,14.96C281.94,52.9,275.94,52.45,269.94,52.38z M245.48,80.22
			c-2.69-6.5-2.69-13.26,0-19.77C254.94,67.9,254.94,72.77,245.48,80.22z M256.02,97.61c3.77,2.01,7.85,3.75,12.16,5.22
			c-0.4,0.21-0.79,0.42-1.2,0.62c0.52-0.17,1.03-0.34,1.54-0.51c0.47,0.16,0.95,0.32,1.43,0.47c0.04,0.01,0.08,0.03,0.11,0.04
			c-0.04-0.02-0.08-0.04-0.11-0.06c-0.37-0.18-0.73-0.37-1.09-0.56c0.36-0.12,0.72-0.25,1.08-0.38c3.91-1.39,7.63-3,11.08-4.84
			c6.39-3.41,11.33-7.3,14.83-11.45c2.3,0.99,4.73,2.09,7.32,3.29c24.38,14.89,25.09,18.57,2.13,32.8c-3.4,1.59-6.54,3.01-9.45,4.27
			c-3.5-4.15-8.44-8.04-14.83-11.45c-3.45-1.84-7.16-3.45-11.07-4.84l0,0c-0.36-0.13-0.72-0.26-1.09-0.38
			c0.36-0.19,0.72-0.38,1.09-0.56c0.04-0.02,0.08-0.04,0.11-0.06l0,0l0,0c-0.04,0.01-0.08,0.03-0.12,0.04l0,0
			c-0.48,0.15-0.95,0.31-1.42,0.47c-0.51-0.17-1.02-0.34-1.54-0.51c0.4,0.2,0.8,0.41,1.2,0.62c-4.31,1.47-8.39,3.21-12.16,5.22
			c-6.4,3.41-11.34,7.3-14.84,11.45c-3.06-1.32-6.36-2.83-9.97-4.51c-22.45-13.96-21.73-17.72,2.14-32.33
			c2.78-1.29,5.39-2.46,7.83-3.52C244.68,90.31,249.62,94.2,256.02,97.61z M422.04,82.62c-12.2,1.43-24.86,1.43-37.06,0
			C398.95,77.57,408.09,77.57,422.04,82.62z M384.99,58.05c12.2-1.43,24.86-1.43,37.06,0C408.09,63.09,398.95,63.09,384.99,58.05z
			 M422.76,86.91c-4.17,5.73-10.58,11.11-19.25,15.74c-8.66-4.63-15.08-10.01-19.25-15.74C396.85,88.76,410.18,88.76,422.76,86.91z
			 M426.55,60.45c2.69,6.5,2.69,13.26,0,19.77C417.1,72.77,417.1,67.9,426.55,60.45z M384.27,53.75
			c4.17-5.73,10.58-11.11,19.25-15.74c8.67,4.63,15.08,10.01,19.25,15.74C410.18,51.91,396.85,51.91,384.27,53.75z M380.48,80.22
			c-2.69-6.5-2.69-13.26,0-19.77C389.94,67.9,389.94,72.77,380.48,80.22z M391.02,97.61c3.77,2.01,7.85,3.75,12.16,5.22
			c-0.4,0.21-0.79,0.42-1.2,0.62c0.52-0.17,1.03-0.34,1.54-0.51c0.51,0.17,1.02,0.34,1.54,0.51c-0.4-0.2-0.8-0.41-1.2-0.62
			c4.31-1.47,8.39-3.21,12.16-5.22c6.39-3.41,11.33-7.3,14.83-11.45c2.3,0.99,4.73,2.09,7.33,3.29
			c24.37,14.89,25.09,18.57,2.12,32.8c-3.4,1.59-6.54,3.01-9.45,4.27c-3.5-4.15-8.44-8.04-14.83-11.45
			c-3.77-2.01-7.85-3.75-12.16-5.22c0.4-0.21,0.8-0.42,1.2-0.62c-0.52,0.16-1.03,0.34-1.54,0.51c-0.51-0.17-1.02-0.34-1.54-0.51
			c0.4,0.2,0.8,0.41,1.2,0.62c-4.31,1.47-8.39,3.21-12.16,5.22c-6.4,3.41-11.34,7.3-14.84,11.45c-3.06-1.32-6.36-2.83-9.97-4.51
			c-22.45-13.96-21.73-17.72,2.14-32.33c2.78-1.29,5.38-2.46,7.83-3.52C379.68,90.31,384.62,94.2,391.02,97.61z M384.99,202.05
			c12.2-1.43,24.86-1.43,37.06,0C408.09,207.09,398.95,207.09,384.99,202.05z M422.04,226.62c-12.2,1.43-24.86,1.43-37.06,0
			C398.95,221.57,408.09,221.57,422.04,226.62z M384.27,197.75c4.17-5.73,10.58-11.11,19.25-15.74c8.67,4.63,15.08,10,19.25,15.74
			C410.18,195.91,396.85,195.91,384.27,197.75z M380.48,224.22c-2.69-6.5-2.69-13.26,0-19.77
			C389.94,211.9,389.94,216.77,380.48,224.22z M422.76,230.91c-4.17,5.73-10.58,11.11-19.25,15.74
			c-8.66-4.63-15.08-10.01-19.25-15.74C396.85,232.76,410.18,232.76,422.76,230.91z M426.55,204.45c2.69,6.5,2.69,13.26,0,19.76
			C417.1,216.77,417.1,211.9,426.55,204.45z M416.02,187.06c-3.77-2.01-7.85-3.75-12.16-5.22c0.4-0.21,0.8-0.42,1.2-0.62
			c-0.52,0.16-1.03,0.34-1.54,0.51c-0.51-0.17-1.02-0.34-1.54-0.51c0.4,0.2,0.8,0.41,1.2,0.62c-4.31,1.47-8.39,3.21-12.16,5.22
			c-6.4,3.41-11.34,7.3-14.84,11.45c-3.06-1.32-6.36-2.83-9.97-4.51c-22.45-13.96-21.73-17.72,2.14-32.33
			c2.78-1.29,5.39-2.46,7.83-3.52c3.5,4.15,8.44,8.05,14.84,11.46c3.77,2.01,7.85,3.75,12.16,5.22c-0.4,0.21-0.79,0.42-1.2,0.62
			c0.52-0.17,1.03-0.34,1.54-0.51c0.51,0.17,1.02,0.34,1.54,0.51c-0.4-0.2-0.8-0.41-1.2-0.62c4.31-1.47,8.39-3.21,12.16-5.22
			c6.39-3.41,11.33-7.3,14.83-11.46c2.3,0.99,4.73,2.09,7.33,3.29c24.37,14.88,25.09,18.57,2.12,32.8c-3.4,1.58-6.54,3.01-9.45,4.27
			C427.35,194.36,422.41,190.47,416.02,187.06z M422.04,154.62c-12.2,1.43-24.86,1.43-37.06,0
			C398.95,149.57,408.09,149.57,422.04,154.62z M384.99,130.05c12.2-1.43,24.86-1.43,37.06,0
			C408.09,135.09,398.95,135.09,384.99,130.05z M422.76,158.91c-4.17,5.73-10.58,11.11-19.25,15.74
			c-8.66-4.63-15.08-10.01-19.25-15.74C396.85,160.76,410.18,160.76,422.76,158.91z M419.69,144c-1-3.66,1.28-7.16,6.86-11.55
			c1.57,3.8,2.21,7.68,1.95,11.55c-0.18,2.76-0.83,5.51-1.95,8.22C422.67,149.16,420.39,146.54,419.69,144z M384.27,125.75
			c4.17-5.73,10.58-11.11,19.25-15.74c8.67,4.63,15.08,10,19.25,15.74C410.18,123.91,396.85,123.91,384.27,125.75z M387.35,144
			c-0.7,2.54-2.98,5.16-6.86,8.22c-1.12-2.71-1.76-5.46-1.95-8.22c-0.26-3.87,0.38-7.75,1.95-11.55
			C386.06,136.84,388.35,140.34,387.35,144z M367.8,123.92c2.2,1.36,4.22,2.63,6.05,3.84c-7.79,1.87-15.08,4.5-21.48,7.91
			c-3.77,2.01-7.03,4.19-9.79,6.48c-0.39-0.21-0.78-0.43-1.17-0.64c0.31,0.28,0.63,0.55,0.96,0.82c-0.32,0.27-0.65,0.55-0.96,0.82
			c0.38-0.22,0.78-0.43,1.17-0.64c0.6,0.5,1.23,0.99,1.88,1.48c2.33,1.75,4.96,3.43,7.91,5c6.4,3.41,13.69,6.05,21.48,7.91
			c-2.41,1.59-5.15,3.29-8.19,5.15c-25.93,11.91-33.22,12-58.9,0.24c-3.21-1.95-6.07-3.73-8.58-5.39c7.79-1.87,15.09-4.5,21.48-7.91
			c2.95-1.57,5.58-3.25,7.91-5c0.65-0.49,1.28-0.98,1.88-1.48c0.39,0.21,0.78,0.42,1.17,0.64c-0.31-0.28-0.63-0.55-0.95-0.82
			c0.32-0.27,0.64-0.55,0.95-0.82c-0.38,0.21-0.78,0.43-1.17,0.64c-2.76-2.3-6.02-4.48-9.79-6.48c-6.4-3.41-13.69-6.05-21.48-7.91
			c1.94-1.28,4.09-2.63,6.44-4.08C332.77,110.61,339.39,110.69,367.8,123.92z M369.91,144c0.23,2.9,1.07,5.78,2.52,8.6
			c-9.41-1.95-18.31-4.81-26.21-8.6c-1.12-0.54-2.22-1.09-3.3-1.67c8.68-4.62,18.76-8.04,29.51-10.27
			C370.43,135.96,369.59,139.99,369.91,144z M249.99,202.05c6.56-0.77,13.26-1.12,19.95-1.06c5.74,0.05,11.47,0.4,17.11,1.06
			c-6.41,2.32-11.8,3.57-17.11,3.75C263.68,206.03,257.54,204.78,249.99,202.05z M287.04,226.62c-5.63,0.66-11.36,1.01-17.1,1.06
			c-6.69,0.06-13.39-0.29-19.95-1.06c7.55-2.73,13.69-3.98,19.95-3.75C275.25,223.06,280.64,224.3,287.04,226.62z M269.94,196.38
			c-6.96-0.07-13.92,0.38-20.68,1.37c4.17-5.73,10.58-11.11,19.25-15.74c0.48,0.26,0.95,0.52,1.42,0.78
			c7.95,4.45,13.89,9.54,17.82,14.96C281.94,196.9,275.94,196.45,269.94,196.38z M245.48,224.22c-2.69-6.5-2.69-13.26,0-19.77
			C254.94,211.9,254.94,216.77,245.48,224.22z M269.94,232.28c6-0.06,11.99-0.52,17.82-1.37c-3.94,5.41-9.88,10.51-17.82,14.96
			c-0.47,0.26-0.94,0.52-1.42,0.78c-8.66-4.63-15.08-10.01-19.25-15.74C256.02,231.9,262.99,232.36,269.94,232.28z M291.55,204.45
			c2.69,6.5,2.69,13.26,0,19.76C282.1,216.77,282.1,211.9,291.55,204.45z M281.02,187.06c-3.45-1.84-7.16-3.45-11.07-4.84v0
			c-0.36-0.13-0.72-0.26-1.09-0.38c0.36-0.19,0.72-0.38,1.09-0.56c0.04-0.02,0.08-0.04,0.11-0.06l0,0l0,0
			c-0.04,0.01-0.08,0.03-0.12,0.04l0,0c-0.48,0.15-0.95,0.31-1.42,0.47c-0.51-0.17-1.02-0.34-1.54-0.51c0.4,0.2,0.8,0.41,1.2,0.62
			c-4.31,1.47-8.39,3.21-12.16,5.22c-6.4,3.41-11.34,7.3-14.84,11.45c-3.06-1.32-6.36-2.83-9.97-4.51
			c-22.45-13.96-21.73-17.72,2.14-32.33c2.78-1.29,5.39-2.46,7.83-3.52c3.5,4.15,8.44,8.05,14.84,11.46
			c3.77,2.01,7.85,3.75,12.16,5.22c-0.4,0.21-0.79,0.42-1.2,0.62c0.52-0.17,1.03-0.34,1.54-0.51c0.47,0.16,0.95,0.32,1.42,0.47l0,0
			c0.04,0.01,0.08,0.03,0.12,0.04c-0.04-0.02-0.08-0.04-0.12-0.06c-0.37-0.18-0.72-0.37-1.08-0.56c0.36-0.12,0.72-0.25,1.08-0.38
			c3.91-1.39,7.63-3,11.08-4.84c6.39-3.41,11.33-7.3,14.83-11.46c2.3,0.99,4.73,2.09,7.33,3.29c24.37,14.88,25.09,18.57,2.12,32.8
			c-3.4,1.58-6.54,3.01-9.45,4.27C292.35,194.36,287.41,190.47,281.02,187.06z M287.76,125.76c-5.83-0.86-11.82-1.31-17.82-1.37
			c-6.96-0.07-13.92,0.38-20.68,1.37c4.17-5.73,10.58-11.11,19.25-15.74c0.48,0.26,0.95,0.52,1.42,0.78v0
			C277.89,115.25,283.83,120.34,287.76,125.76z M269.94,150.86c5.31,0.19,10.7,1.44,17.1,3.75c-5.63,0.66-11.36,1.01-17.1,1.06
			c-6.69,0.06-13.39-0.29-19.95-1.06C257.54,151.89,263.68,150.64,269.94,150.86z M249.99,130.05c6.56-0.77,13.26-1.13,19.95-1.06
			c5.74,0.05,11.47,0.4,17.11,1.06c-6.41,2.31-11.8,3.56-17.11,3.75C263.68,134.03,257.54,132.78,249.99,130.05z M269.94,160.28
			c6-0.06,11.99-0.52,17.82-1.37c-3.94,5.41-9.88,10.51-17.82,14.96l0,0c-0.47,0.26-0.94,0.52-1.42,0.78
			c-8.66-4.63-15.08-10.01-19.25-15.74C256.02,159.9,262.99,160.36,269.94,160.28z M284.69,144c-1-3.66,1.28-7.16,6.86-11.55
			c1.57,3.8,2.21,7.68,1.95,11.55c-0.19,2.76-0.83,5.51-1.95,8.22C287.67,149.16,285.39,146.54,284.69,144z M252.34,144
			c-0.7,2.54-2.98,5.16-6.86,8.22c-1.12-2.71-1.76-5.46-1.95-8.22c-0.26-3.87,0.38-7.75,1.95-11.55
			C251.06,136.84,253.35,140.34,252.34,144z M299.6,132.07c10.75,2.22,20.83,5.64,29.51,10.27c-1.08,0.57-2.18,1.13-3.3,1.67
			c-7.9,3.79-16.8,6.65-26.21,8.6c1.45-2.82,2.29-5.7,2.52-8.6C302.44,139.99,301.61,135.96,299.6,132.07z M232.8,123.92
			c2.2,1.36,4.22,2.63,6.05,3.84c-7.79,1.87-15.08,4.5-21.48,7.91c-3.77,2.01-7.03,4.19-9.79,6.48c-0.39-0.21-0.78-0.43-1.17-0.64
			c0.31,0.28,0.63,0.55,0.96,0.82c-0.32,0.27-0.65,0.55-0.96,0.82c0.38-0.22,0.78-0.43,1.17-0.64c0.6,0.5,1.23,0.99,1.88,1.48
			c2.33,1.75,4.96,3.43,7.91,5c6.4,3.41,13.69,6.05,21.48,7.91c-2.41,1.59-5.15,3.29-8.19,5.15c-25.93,11.91-33.22,12-58.9,0.24
			c-3.21-1.95-6.07-3.73-8.58-5.39c7.79-1.87,15.09-4.5,21.48-7.91c2.95-1.57,5.58-3.25,7.91-5c0.65-0.49,1.28-0.98,1.88-1.48
			c0.39,0.21,0.78,0.42,1.17,0.64c-0.31-0.28-0.63-0.55-0.95-0.82c0.32-0.27,0.64-0.55,0.95-0.82c-0.38,0.21-0.78,0.43-1.17,0.64
			c-2.76-2.3-6.02-4.48-9.79-6.48c-6.4-3.41-13.69-6.05-21.48-7.91c1.94-1.28,4.09-2.63,6.44-4.08
			C197.77,110.61,204.39,110.69,232.8,123.92z M234.91,144c0.23,2.9,1.07,5.78,2.52,8.6c-9.41-1.95-18.31-4.81-26.21-8.6
			c-1.12-0.54-2.22-1.09-3.3-1.67c8.68-4.62,18.76-8.04,29.51-10.27C235.43,135.96,234.59,139.99,234.91,144z M114.99,202.05
			c12.2-1.43,24.86-1.43,37.06,0C138.09,207.09,128.95,207.09,114.99,202.05z M152.04,226.62c-12.2,1.43-24.86,1.43-37.06,0
			C128.94,221.57,138.09,221.57,152.04,226.62z M114.27,197.75c4.17-5.73,10.58-11.11,19.25-15.74c8.66,4.63,15.08,10,19.25,15.74
			C140.18,195.91,126.85,195.91,114.27,197.75z M110.48,224.22c-2.69-6.5-2.69-13.26,0-19.77
			C119.94,211.9,119.94,216.77,110.48,224.22z M152.76,230.91c-4.17,5.73-10.58,11.11-19.25,15.74
			c-8.66-4.63-15.08-10.01-19.25-15.74C126.85,232.76,140.18,232.76,152.76,230.91z M156.55,204.45c2.69,6.5,2.69,13.26,0,19.76
			C147.1,216.77,147.1,211.9,156.55,204.45z M146.01,187.06c-3.76-2.01-7.85-3.75-12.16-5.22c0.4-0.21,0.8-0.42,1.2-0.62
			c-0.52,0.16-1.03,0.34-1.54,0.51c-0.51-0.17-1.02-0.34-1.54-0.51c0.4,0.2,0.8,0.41,1.2,0.62c-4.31,1.47-8.39,3.21-12.16,5.22
			c-6.39,3.41-11.34,7.3-14.83,11.45c-3.06-1.32-6.36-2.83-9.97-4.51c-22.45-13.96-21.73-17.72,2.14-32.33
			c2.78-1.29,5.39-2.46,7.83-3.52c3.5,4.15,8.44,8.05,14.83,11.46c3.77,2.01,7.85,3.75,12.16,5.22c-0.4,0.21-0.79,0.42-1.2,0.62
			c0.52-0.17,1.03-0.34,1.54-0.51c0.51,0.17,1.02,0.34,1.54,0.51c-0.4-0.2-0.8-0.41-1.2-0.62c4.31-1.47,8.39-3.21,12.16-5.22
			c6.4-3.41,11.34-7.3,14.84-11.46c2.3,0.99,4.73,2.09,7.33,3.29c24.37,14.88,25.09,18.57,2.12,32.8c-3.4,1.58-6.54,3.01-9.45,4.27
			C157.35,194.36,152.41,190.47,146.01,187.06z M152.04,154.62c-12.2,1.43-24.86,1.43-37.06,0
			C128.94,149.57,138.09,149.57,152.04,154.62z M114.99,130.05c12.2-1.43,24.86-1.43,37.06,0
			C138.09,135.09,128.95,135.09,114.99,130.05z M152.76,158.91c-4.17,5.73-10.58,11.11-19.25,15.74
			c-8.66-4.63-15.08-10.01-19.25-15.74C126.85,160.76,140.18,160.76,152.76,158.91z M149.69,144c-1-3.66,1.28-7.16,6.86-11.55
			c1.57,3.8,2.21,7.68,1.95,11.55c-0.19,2.76-0.83,5.51-1.95,8.22C152.67,149.16,150.39,146.54,149.69,144z M114.27,125.75
			c4.17-5.73,10.58-11.11,19.25-15.74c8.66,4.63,15.08,10,19.25,15.74C140.18,123.91,126.85,123.91,114.27,125.75z M117.34,144
			c-0.7,2.54-2.98,5.16-6.86,8.22c-1.12-2.71-1.76-5.46-1.95-8.22c-0.26-3.87,0.38-7.75,1.95-11.55
			C116.06,136.84,118.35,140.34,117.34,144z M164.6,132.07c10.75,2.22,20.83,5.64,29.51,10.27c-1.08,0.57-2.18,1.13-3.3,1.67
			c-7.9,3.79-16.8,6.65-26.21,8.6c1.45-2.82,2.29-5.7,2.52-8.6C167.44,139.99,166.61,135.96,164.6,132.07z M99.91,144
			c0.23,2.9,1.07,5.78,2.52,8.6c-9.41-1.95-18.31-4.81-26.21-8.6c-1.12-0.54-2.22-1.09-3.3-1.67c8.68-4.62,18.76-8.04,29.51-10.27
			C100.43,135.96,99.59,139.99,99.91,144z M36.76,234.3c-3.21-1.95-6.07-3.73-8.58-5.39c7.79-1.87,15.09-4.5,21.48-7.91
			c3.77-2.01,7.03-4.19,9.79-6.48c0.39,0.21,0.78,0.42,1.17,0.64c-0.31-0.28-0.63-0.55-0.95-0.82c0.32-0.27,0.64-0.55,0.95-0.82
			c-0.38,0.21-0.78,0.43-1.17,0.64c-2.76-2.3-6.02-4.48-9.79-6.48c-6.4-3.41-13.69-6.04-21.48-7.91c1.94-1.28,4.09-2.63,6.44-4.08
			c28.15-13.07,34.77-12.99,63.19,0.24c2.2,1.36,4.22,2.63,6.05,3.84c-7.79,1.86-15.08,4.5-21.48,7.91
			c-3.77,2.01-7.03,4.19-9.79,6.48c-0.39-0.21-0.78-0.43-1.17-0.64c0.31,0.28,0.63,0.55,0.96,0.82c-0.32,0.27-0.65,0.55-0.96,0.82
			c0.38-0.22,0.78-0.43,1.17-0.64c2.76,2.3,6.02,4.47,9.79,6.48c6.4,3.41,13.69,6.05,21.48,7.91c-2.41,1.59-5.15,3.29-8.19,5.15
			C69.73,245.98,62.44,246.06,36.76,234.3z M29.6,204.07c10.75,2.22,20.83,5.64,29.51,10.27c-8.68,4.62-18.76,8.04-29.51,10.27
			C33.06,217.89,33.06,210.78,29.6,204.07z M102.43,224.6c-10.75-2.22-20.83-5.65-29.51-10.27c8.68-4.62,18.76-8.04,29.51-10.27
			C98.97,210.78,98.97,217.89,102.43,224.6z M114.99,274.05c12.2-1.43,24.86-1.43,37.06,0
			C138.09,279.09,128.95,279.09,114.99,274.05z M114.27,269.76c4.17-5.73,10.58-11.11,19.25-15.74c8.66,4.63,15.08,10,19.25,15.74
			C140.18,267.91,126.85,267.91,114.27,269.76z M170.3,266.24c-3.4,1.58-6.54,3.01-9.45,4.27c-3.5-4.15-8.44-8.05-14.84-11.46
			c-3.76-2.01-7.85-3.75-12.16-5.22c0.4-0.21,0.8-0.42,1.2-0.62c-0.52,0.16-1.03,0.34-1.54,0.51c-0.51-0.17-1.02-0.35-1.54-0.51
			c0.4,0.2,0.8,0.41,1.2,0.62c-4.31,1.47-8.39,3.21-12.16,5.22c-6.39,3.41-11.34,7.3-14.83,11.46c-3.06-1.33-6.36-2.83-9.97-4.51
			c-22.45-13.96-21.73-17.72,2.14-32.33c2.78-1.29,5.39-2.46,7.83-3.52c3.5,4.15,8.44,8.05,14.83,11.46
			c3.77,2.01,7.85,3.75,12.16,5.22c-0.4,0.21-0.79,0.42-1.2,0.62c0.52-0.17,1.03-0.34,1.54-0.51c0.51,0.17,1.02,0.34,1.54,0.51
			c-0.4-0.2-0.8-0.41-1.2-0.62c4.31-1.47,8.39-3.21,12.16-5.22c6.4-3.41,11.34-7.3,14.84-11.46c2.3,0.99,4.73,2.09,7.32,3.29
			C192.55,248.33,193.26,252.01,170.3,266.24z M171.76,234.3c-3.21-1.95-6.07-3.73-8.58-5.39c7.79-1.87,15.09-4.5,21.48-7.91
			c3.77-2.01,7.03-4.19,9.79-6.48c0.39,0.21,0.78,0.42,1.17,0.64c-0.31-0.28-0.63-0.55-0.95-0.82c0.32-0.27,0.64-0.55,0.95-0.82
			c-0.38,0.21-0.78,0.43-1.17,0.64c-2.76-2.3-6.02-4.48-9.79-6.48c-6.4-3.41-13.69-6.04-21.48-7.91c1.94-1.28,4.09-2.63,6.44-4.08
			c28.15-13.07,34.77-12.99,63.19,0.24c2.2,1.36,4.22,2.63,6.05,3.84c-7.79,1.86-15.08,4.5-21.48,7.91
			c-3.77,2.01-7.03,4.19-9.79,6.48c-0.39-0.21-0.78-0.43-1.17-0.64c0.31,0.28,0.63,0.55,0.96,0.82c-0.32,0.27-0.65,0.55-0.96,0.82
			c0.38-0.22,0.78-0.43,1.17-0.64c2.76,2.3,6.02,4.47,9.79,6.48c6.4,3.41,13.69,6.05,21.48,7.91c-2.41,1.59-5.15,3.29-8.19,5.15
			C204.73,245.98,197.44,246.06,171.76,234.3z M164.6,204.07c10.75,2.22,20.83,5.64,29.51,10.27c-8.68,4.62-18.76,8.04-29.51,10.27
			C168.06,217.89,168.06,210.78,164.6,204.07z M237.43,224.6c-10.75-2.22-20.83-5.65-29.51-10.27c8.68-4.62,18.76-8.04,29.51-10.27
			C233.97,210.78,233.97,217.89,237.43,224.6z M269.94,277.8c-6.26,0.22-12.4-1.03-19.95-3.75c6.56-0.77,13.26-1.12,19.95-1.06
			c5.74,0.05,11.47,0.4,17.11,1.06C280.64,276.36,275.25,277.61,269.94,277.8z M269.94,268.38c-6.96-0.07-13.92,0.38-20.68,1.37
			c4.17-5.73,10.58-11.11,19.25-15.74c0.48,0.26,0.95,0.52,1.42,0.78l0,0c7.95,4.45,13.89,9.54,17.82,14.96
			C281.94,268.9,275.94,268.45,269.94,268.38z M305.3,266.24c-3.4,1.58-6.54,3.01-9.45,4.27c-3.5-4.15-8.44-8.05-14.83-11.46
			c-3.45-1.84-7.16-3.45-11.07-4.84v0c-0.36-0.13-0.72-0.26-1.09-0.38c0.36-0.19,0.72-0.38,1.09-0.56c0.04-0.02,0.08-0.04,0.11-0.06
			l0,0l0,0c-0.04,0.01-0.08,0.03-0.12,0.04l0,0c-0.48,0.15-0.95,0.31-1.42,0.47c-0.51-0.17-1.02-0.35-1.54-0.51
			c0.4,0.2,0.8,0.41,1.2,0.62c-4.31,1.47-8.39,3.21-12.16,5.22c-6.4,3.41-11.34,7.3-14.84,11.46c-3.06-1.33-6.36-2.83-9.97-4.51
			c-22.45-13.96-21.73-17.72,2.14-32.33c2.78-1.29,5.39-2.46,7.83-3.52c3.5,4.15,8.44,8.05,14.84,11.46
			c3.77,2.01,7.85,3.75,12.16,5.22c-0.4,0.21-0.79,0.42-1.2,0.62c0.52-0.17,1.03-0.34,1.54-0.51c0.47,0.16,0.95,0.32,1.43,0.47
			c0.04,0.01,0.08,0.03,0.11,0.04c-0.04-0.02-0.08-0.04-0.11-0.06c-0.37-0.18-0.73-0.37-1.09-0.56c0.36-0.12,0.72-0.25,1.08-0.38
			c3.91-1.39,7.63-3,11.08-4.84c6.39-3.41,11.33-7.3,14.83-11.46c2.3,0.99,4.73,2.09,7.32,3.29
			C327.55,248.33,328.26,252.01,305.3,266.24z M306.76,234.3c-3.21-1.95-6.07-3.73-8.58-5.39c7.79-1.87,15.09-4.5,21.48-7.91
			c3.77-2.01,7.03-4.19,9.79-6.48c0.39,0.21,0.78,0.42,1.17,0.64c-0.31-0.28-0.63-0.55-0.95-0.82c0.32-0.27,0.64-0.55,0.95-0.82
			c-0.38,0.21-0.78,0.43-1.17,0.64c-2.76-2.3-6.02-4.48-9.79-6.48c-6.4-3.41-13.69-6.04-21.48-7.91c1.94-1.28,4.09-2.63,6.44-4.08
			c28.15-13.07,34.77-12.99,63.19,0.24c2.2,1.36,4.22,2.63,6.05,3.84c-7.79,1.86-15.08,4.5-21.48,7.91
			c-3.77,2.01-7.03,4.19-9.79,6.48c-0.39-0.21-0.78-0.43-1.17-0.64c0.31,0.28,0.63,0.55,0.96,0.82c-0.32,0.27-0.65,0.55-0.96,0.82
			c0.38-0.22,0.78-0.43,1.17-0.64c2.76,2.3,6.02,4.47,9.79,6.48c6.4,3.41,13.69,6.05,21.48,7.91c-2.41,1.59-5.15,3.29-8.19,5.15
			C339.73,245.98,332.44,246.06,306.76,234.3z M299.6,204.07c10.75,2.22,20.83,5.64,29.51,10.27c-8.68,4.62-18.76,8.04-29.51,10.27
			C303.06,217.89,303.06,210.78,299.6,204.07z M372.43,224.6c-10.75-2.22-20.83-5.65-29.51-10.27c8.68-4.62,18.76-8.04,29.51-10.27
			C368.97,210.78,368.97,217.89,372.43,224.6z M384.99,274.05c12.2-1.43,24.86-1.43,37.06,0
			C408.09,279.09,398.95,279.09,384.99,274.05z M384.27,269.76c4.17-5.73,10.58-11.11,19.25-15.74c8.67,4.63,15.08,10,19.25,15.74
			C410.18,267.91,396.85,267.91,384.27,269.76z M440.3,266.24c-3.4,1.58-6.54,3.01-9.45,4.27c-3.5-4.15-8.44-8.05-14.83-11.46
			c-3.77-2.01-7.85-3.75-12.16-5.22c0.4-0.21,0.8-0.42,1.2-0.62c-0.52,0.16-1.03,0.34-1.54,0.51c-0.51-0.17-1.02-0.35-1.54-0.51
			c0.4,0.2,0.8,0.41,1.2,0.62c-4.31,1.47-8.39,3.21-12.16,5.22c-6.4,3.41-11.34,7.3-14.84,11.46c-3.06-1.33-6.36-2.83-9.97-4.51
			c-22.45-13.96-21.73-17.72,2.14-32.33c2.78-1.29,5.38-2.46,7.83-3.52c3.5,4.15,8.44,8.05,14.84,11.46
			c3.77,2.01,7.85,3.75,12.16,5.22c-0.4,0.21-0.79,0.42-1.2,0.62c0.52-0.17,1.03-0.34,1.54-0.51c0.51,0.17,1.02,0.34,1.54,0.51
			c-0.4-0.2-0.8-0.41-1.2-0.62c4.31-1.47,8.39-3.21,12.16-5.22c6.39-3.41,11.33-7.3,14.83-11.46c2.3,0.99,4.73,2.09,7.33,3.29
			C462.55,248.33,463.26,252.01,440.3,266.24z M502.8,195.92c2.2,1.36,4.22,2.63,6.05,3.84c-7.79,1.86-15.09,4.5-21.48,7.91
			c-3.77,2.01-7.03,4.19-9.79,6.48c-0.39-0.21-0.78-0.43-1.16-0.64c0.31,0.28,0.63,0.55,0.95,0.82c-0.32,0.27-0.64,0.55-0.96,0.82
			c0.38-0.22,0.78-0.43,1.17-0.64c2.76,2.3,6.02,4.47,9.79,6.48c6.39,3.41,13.69,6.05,21.48,7.91c-2.41,1.59-5.15,3.29-8.2,5.15
			c-25.93,11.91-33.22,11.99-58.9,0.24c-3.21-1.95-6.07-3.73-8.58-5.39c7.79-1.87,15.09-4.5,21.48-7.91
			c3.77-2.01,7.03-4.19,9.79-6.48c0.39,0.21,0.78,0.42,1.17,0.64c-0.31-0.28-0.63-0.55-0.95-0.82c0.32-0.27,0.64-0.55,0.95-0.82
			c-0.38,0.21-0.78,0.43-1.17,0.64c-2.76-2.3-6.02-4.48-9.79-6.48c-6.4-3.41-13.69-6.04-21.48-7.91c1.94-1.28,4.09-2.63,6.44-4.08
			C467.77,182.61,474.39,182.69,502.8,195.92z M507.43,224.6c-10.75-2.22-20.83-5.65-29.51-10.27c8.68-4.62,18.76-8.04,29.51-10.27
			C503.97,210.78,503.97,217.89,507.43,224.6z M434.6,204.07c10.75,2.22,20.83,5.64,29.51,10.27c-8.68,4.62-18.76,8.04-29.51,10.27
			C438.06,217.89,438.06,210.78,434.6,204.07z M502.8,123.92c2.2,1.36,4.22,2.63,6.05,3.84c-7.79,1.87-15.09,4.5-21.48,7.91
			c-3.77,2.01-7.03,4.19-9.79,6.48c-0.39-0.21-0.78-0.43-1.16-0.64c0.31,0.28,0.63,0.55,0.95,0.82c-0.32,0.27-0.64,0.55-0.96,0.82
			c0.38-0.22,0.78-0.43,1.17-0.64c0.6,0.5,1.23,0.99,1.88,1.48c2.33,1.75,4.96,3.43,7.91,5c6.39,3.41,13.69,6.05,21.48,7.91
			c-2.41,1.59-5.15,3.29-8.2,5.15c-25.93,11.91-33.22,12-58.9,0.24c-3.21-1.95-6.07-3.73-8.58-5.39c7.79-1.87,15.09-4.5,21.48-7.91
			c2.95-1.57,5.58-3.25,7.91-5c0.65-0.49,1.28-0.98,1.88-1.48c0.39,0.21,0.78,0.42,1.17,0.64c-0.31-0.28-0.63-0.55-0.95-0.82
			c0.32-0.27,0.64-0.55,0.95-0.82c-0.38,0.21-0.78,0.43-1.17,0.64c-2.76-2.3-6.02-4.48-9.79-6.48c-6.4-3.41-13.69-6.05-21.48-7.91
			c1.94-1.28,4.09-2.63,6.44-4.08C467.77,110.61,474.39,110.69,502.8,123.92z M504.91,144c0.23,2.9,1.07,5.78,2.52,8.6
			c-9.41-1.95-18.31-4.81-26.21-8.6c-1.12-0.54-2.22-1.09-3.3-1.67c8.68-4.62,18.76-8.04,29.51-10.27
			C505.43,135.96,504.59,139.99,504.91,144z M434.6,132.07c10.75,2.22,20.83,5.64,29.51,10.27c-1.08,0.57-2.18,1.13-3.3,1.67
			c-7.9,3.79-16.8,6.65-26.21,8.6c1.45-2.82,2.29-5.7,2.52-8.6C437.44,139.99,436.61,135.96,434.6,132.07z M502.8,51.92
			c2.2,1.36,4.22,2.63,6.05,3.84c-7.79,1.87-15.09,4.5-21.48,7.91c-3.77,2.01-7.03,4.19-9.79,6.48c-0.39-0.21-0.78-0.42-1.16-0.64
			c0.31,0.28,0.63,0.55,0.95,0.82c-0.32,0.27-0.64,0.55-0.96,0.82c0.38-0.22,0.78-0.43,1.17-0.64c2.76,2.3,6.02,4.47,9.79,6.48
			c6.39,3.41,13.69,6.05,21.48,7.91c-2.41,1.59-5.15,3.29-8.2,5.15c-25.93,11.91-33.22,11.99-58.9,0.24
			c-3.21-1.95-6.07-3.73-8.58-5.39c7.79-1.87,15.09-4.5,21.48-7.91c3.77-2.01,7.03-4.19,9.79-6.48c0.39,0.21,0.78,0.42,1.17,0.64
			c-0.31-0.28-0.63-0.55-0.95-0.82c0.32-0.27,0.64-0.54,0.95-0.82c-0.38,0.21-0.78,0.43-1.17,0.64c-2.76-2.3-6.02-4.47-9.79-6.48
			c-6.4-3.41-13.69-6.05-21.48-7.91c1.94-1.28,4.09-2.63,6.44-4.08C467.77,38.61,474.39,38.69,502.8,51.92z M507.43,80.6
			c-10.75-2.22-20.83-5.65-29.51-10.27c8.68-4.62,18.76-8.04,29.51-10.27C503.97,66.78,503.97,73.89,507.43,80.6z M434.6,60.07
			c10.75,2.23,20.83,5.64,29.51,10.27c-8.68,4.62-18.76,8.04-29.51,10.27C438.06,73.89,438.06,66.78,434.6,60.07z M422.04,10.62
			c-12.2,1.43-24.86,1.43-37.06,0C398.95,5.57,408.09,5.57,422.04,10.62z M422.76,14.91c-4.17,5.73-10.58,11.11-19.25,15.74
			c-8.66-4.63-15.08-10.01-19.25-15.74C396.85,16.76,410.18,16.76,422.76,14.91z M368.35,17.67c2.78-1.29,5.39-2.46,7.83-3.52
			c3.5,4.15,8.44,8.04,14.84,11.45c3.77,2.01,7.85,3.75,12.16,5.22c-0.4,0.21-0.79,0.42-1.2,0.62c0.52-0.17,1.03-0.34,1.54-0.51
			c0.51,0.17,1.02,0.34,1.54,0.51c-0.4-0.2-0.8-0.41-1.2-0.62c4.31-1.47,8.39-3.21,12.16-5.22c6.39-3.41,11.33-7.3,14.83-11.45
			c2.3,0.99,4.73,2.09,7.33,3.29c24.37,14.89,25.09,18.57,2.12,32.8c-3.4,1.58-6.54,3.01-9.45,4.27c-3.5-4.15-8.44-8.04-14.83-11.45
			c-3.77-2.01-7.85-3.75-12.16-5.22c0.4-0.21,0.8-0.42,1.2-0.62c-0.52,0.16-1.03,0.34-1.54,0.51c-0.51-0.17-1.02-0.34-1.54-0.51
			c0.4,0.2,0.8,0.41,1.2,0.62c-4.31,1.47-8.39,3.21-12.16,5.22c-6.4,3.41-11.34,7.3-14.84,11.45c-3.06-1.32-6.36-2.83-9.97-4.51
			C343.77,36.04,344.49,32.28,368.35,17.67z M367.8,51.92c2.2,1.36,4.22,2.63,6.05,3.84c-7.79,1.87-15.08,4.5-21.48,7.91
			c-3.77,2.01-7.03,4.19-9.79,6.48c-0.39-0.21-0.78-0.42-1.17-0.64c0.31,0.28,0.63,0.55,0.96,0.82c-0.32,0.27-0.65,0.55-0.96,0.82
			c0.38-0.22,0.78-0.43,1.17-0.64c2.76,2.3,6.02,4.47,9.79,6.48c6.4,3.41,13.69,6.05,21.48,7.91c-2.41,1.59-5.15,3.29-8.19,5.15
			c-25.93,11.91-33.22,11.99-58.9,0.24c-3.21-1.95-6.07-3.73-8.58-5.39c7.79-1.87,15.09-4.5,21.48-7.91
			c3.77-2.01,7.03-4.19,9.79-6.48c0.39,0.21,0.78,0.42,1.17,0.64c-0.31-0.28-0.63-0.55-0.95-0.82c0.32-0.27,0.64-0.54,0.95-0.82
			c-0.38,0.21-0.78,0.43-1.17,0.64c-2.76-2.3-6.02-4.47-9.79-6.48c-6.4-3.41-13.69-6.05-21.48-7.91c1.94-1.28,4.09-2.63,6.44-4.08
			C332.77,38.61,339.39,38.69,367.8,51.92z M372.43,80.6c-10.75-2.22-20.83-5.65-29.51-10.27c8.68-4.62,18.76-8.04,29.51-10.27
			C368.97,66.78,368.97,73.89,372.43,80.6z M299.6,60.07c10.75,2.23,20.83,5.64,29.51,10.27c-8.68,4.62-18.76,8.04-29.51,10.27
			C303.06,73.89,303.06,66.78,299.6,60.07z M269.94,6.86c5.31,0.19,10.7,1.44,17.1,3.75c-5.63,0.66-11.36,1.01-17.1,1.06
			c-6.69,0.06-13.39-0.29-19.95-1.06C257.54,7.89,263.68,6.64,269.94,6.86z M269.94,16.28c6-0.06,11.99-0.52,17.82-1.37
			c-3.94,5.41-9.88,10.5-17.82,14.95v0c-0.47,0.26-0.94,0.52-1.42,0.78c-8.66-4.63-15.08-10.01-19.25-15.74
			C256.02,15.9,262.99,16.36,269.94,16.28z M233.35,17.67c2.78-1.29,5.39-2.46,7.83-3.52c3.5,4.15,8.44,8.04,14.84,11.45
			c3.77,2.01,7.85,3.75,12.16,5.22c-0.4,0.21-0.79,0.42-1.2,0.62c0.52-0.17,1.03-0.34,1.54-0.51c0.47,0.16,0.95,0.32,1.42,0.47l0,0
			c0.04,0.01,0.08,0.03,0.12,0.04c-0.04-0.02-0.08-0.04-0.12-0.06c-0.37-0.19-0.72-0.37-1.08-0.56c0.36-0.12,0.72-0.25,1.08-0.38
			c3.91-1.39,7.63-3,11.08-4.84c6.39-3.41,11.33-7.3,14.83-11.45c2.3,0.99,4.73,2.09,7.33,3.29c24.37,14.89,25.09,18.57,2.12,32.8
			c-3.4,1.58-6.54,3.01-9.45,4.27c-3.5-4.15-8.44-8.04-14.83-11.45c-3.45-1.84-7.16-3.45-11.07-4.84l0,0
			c-0.36-0.13-0.72-0.26-1.09-0.38c0.36-0.19,0.72-0.38,1.09-0.56c0.04-0.02,0.08-0.04,0.11-0.06l0,0l0,0
			c-0.04,0.01-0.08,0.03-0.12,0.04l0,0c-0.48,0.15-0.95,0.31-1.42,0.47c-0.51-0.17-1.02-0.34-1.54-0.51c0.4,0.2,0.8,0.41,1.2,0.62
			c-4.31,1.47-8.39,3.21-12.16,5.22c-6.4,3.41-11.34,7.3-14.84,11.45c-3.06-1.32-6.36-2.83-9.97-4.51
			C208.77,36.04,209.49,32.28,233.35,17.67z M232.8,51.92c2.2,1.36,4.22,2.63,6.05,3.84c-7.79,1.87-15.08,4.5-21.48,7.91
			c-3.77,2.01-7.03,4.19-9.79,6.48c-0.39-0.21-0.78-0.42-1.17-0.64c0.31,0.28,0.63,0.55,0.96,0.82c-0.32,0.27-0.65,0.55-0.96,0.82
			c0.38-0.22,0.78-0.43,1.17-0.64c2.76,2.3,6.02,4.47,9.79,6.48c6.4,3.41,13.69,6.05,21.48,7.91c-2.41,1.59-5.15,3.29-8.19,5.15
			c-25.93,11.91-33.22,11.99-58.9,0.24c-3.21-1.95-6.07-3.73-8.58-5.39c7.79-1.87,15.09-4.5,21.48-7.91
			c3.77-2.01,7.03-4.19,9.79-6.48c0.39,0.21,0.78,0.42,1.17,0.64c-0.31-0.28-0.63-0.55-0.95-0.82c0.32-0.27,0.64-0.54,0.95-0.82
			c-0.38,0.21-0.78,0.43-1.17,0.64c-2.76-2.3-6.02-4.47-9.79-6.48c-6.4-3.41-13.69-6.05-21.48-7.91c1.94-1.28,4.09-2.63,6.44-4.08
			C197.77,38.61,204.39,38.69,232.8,51.92z M237.43,80.6c-10.75-2.22-20.83-5.65-29.51-10.27c8.68-4.62,18.76-8.04,29.51-10.27
			C233.97,66.78,233.97,73.89,237.43,80.6z M164.6,60.07c10.75,2.23,20.83,5.64,29.51,10.27c-8.68,4.62-18.76,8.04-29.51,10.27
			C168.06,73.89,168.06,66.78,164.6,60.07z M152.04,10.62c-12.2,1.43-24.86,1.43-37.06,0C128.94,5.57,138.09,5.57,152.04,10.62z
			 M152.76,14.91c-4.17,5.73-10.58,11.11-19.25,15.74c-8.66-4.63-15.08-10.01-19.25-15.74C126.85,16.76,140.18,16.76,152.76,14.91z
			 M98.35,17.67c2.78-1.29,5.38-2.46,7.83-3.52c3.5,4.15,8.44,8.04,14.83,11.45c3.77,2.01,7.85,3.75,12.16,5.22
			c-0.4,0.21-0.79,0.42-1.2,0.62c0.52-0.17,1.03-0.34,1.54-0.51c0.51,0.17,1.02,0.34,1.54,0.51c-0.4-0.2-0.8-0.41-1.2-0.62
			c4.31-1.47,8.39-3.21,12.16-5.22c6.4-3.41,11.34-7.3,14.84-11.45c2.3,0.99,4.73,2.09,7.33,3.29c24.37,14.89,25.09,18.57,2.12,32.8
			c-3.4,1.58-6.54,3.01-9.45,4.27c-3.5-4.15-8.44-8.04-14.84-11.45c-3.76-2.01-7.85-3.75-12.16-5.22c0.4-0.21,0.8-0.42,1.2-0.62
			c-0.52,0.16-1.03,0.34-1.54,0.51c-0.51-0.17-1.02-0.34-1.54-0.51c0.4,0.2,0.8,0.41,1.2,0.62c-4.31,1.47-8.39,3.21-12.16,5.22
			c-6.39,3.41-11.34,7.3-14.83,11.45c-3.06-1.32-6.36-2.83-9.97-4.51C73.77,36.04,74.49,32.28,98.35,17.67z M97.8,51.92
			c2.2,1.36,4.22,2.63,6.05,3.84c-7.79,1.87-15.08,4.5-21.48,7.91c-3.77,2.01-7.03,4.19-9.79,6.48c-0.39-0.21-0.78-0.42-1.17-0.64
			c0.31,0.28,0.63,0.55,0.96,0.82c-0.32,0.27-0.65,0.55-0.96,0.82c0.38-0.22,0.78-0.43,1.17-0.64c2.76,2.3,6.02,4.47,9.79,6.48
			c6.4,3.41,13.69,6.05,21.48,7.91c-2.41,1.59-5.15,3.29-8.19,5.15c-25.93,11.91-33.22,11.99-58.9,0.24
			c-3.21-1.95-6.07-3.73-8.58-5.39c7.79-1.87,15.09-4.5,21.48-7.91c3.77-2.01,7.03-4.19,9.79-6.48c0.39,0.21,0.78,0.42,1.17,0.64
			c-0.31-0.28-0.63-0.55-0.95-0.82c0.32-0.27,0.64-0.54,0.95-0.82c-0.38,0.21-0.78,0.43-1.17,0.64c-2.76-2.3-6.02-4.47-9.79-6.48
			c-6.4-3.41-13.69-6.05-21.48-7.91c1.94-1.28,4.09-2.63,6.44-4.08C62.77,38.61,69.38,38.69,97.8,51.92z M102.43,80.6
			c-10.75-2.22-20.83-5.65-29.51-10.27c8.68-4.62,18.76-8.04,29.51-10.27C98.97,66.78,98.97,73.89,102.43,80.6z M29.6,60.07
			c10.75,2.23,20.83,5.64,29.51,10.27c-8.68,4.62-18.76,8.04-29.51,10.27C33.06,73.89,33.06,66.78,29.6,60.07z"/>
		<path class="st2" d="M0,253.23v0.01c0.02-0.01,0.04-0.02,0.06-0.03C0.04,253.22,0.02,253.23,0,253.23z"/>
		<path class="st2" d="M0,181.23v0.01c0.02-0.01,0.04-0.02,0.06-0.03C0.04,181.22,0.02,181.23,0,181.23z"/>
		<path class="st2" d="M0,37.23L0,37.23c0.02,0,0.04-0.01,0.06-0.02C0.04,37.22,0.02,37.23,0,37.23z"/>
		<path class="st2" d="M0,103.42v0.01c0.02,0.01,0.04,0.01,0.06,0.02C0.04,103.44,0.02,103.43,0,103.42z"/>
		<path class="st2" d="M0,31.42v0.01c0.02,0.01,0.04,0.01,0.06,0.02C0.04,31.44,0.02,31.43,0,31.42z"/>
		<path class="st2" d="M0,175.42v0.01c0.02,0.01,0.04,0.01,0.06,0.02C0.04,175.44,0.02,175.43,0,175.42z"/>
		<path class="st2" d="M0,109.23v0.01c0.02-0.01,0.04-0.02,0.06-0.03C0.04,109.22,0.02,109.23,0,109.23z"/>
	</g>
</g>
</svg>
