<?xml version="1.0" encoding="utf-8"?>
<!-- Generator: Adobe Illustrator 23.0.3, SVG Export Plug-In . SVG Version: 6.00 Build 0)  -->
<svg version="1.1" id="Layer_1" xmlns="http://www.w3.org/2000/svg" xmlns:xlink="http://www.w3.org/1999/xlink" x="0px" y="0px"
	 viewBox="0 0 612 792" style="enable-background:new 0 0 612 792;" xml:space="preserve">
<style type="text/css">
	.st0{fill:none;stroke:#CE1E4B;stroke-width:12;stroke-miterlimit:10;}
	.st1{fill:#ED1967;stroke:#ED1967;stroke-width:12;stroke-miterlimit:10;}
	.st2{fill:none;stroke:#CB1E54;stroke-width:12;stroke-miterlimit:10;}
	.st3{fill:none;stroke:#EC008C;stroke-width:12;stroke-miterlimit:10;}
	.st4{fill:#009444;stroke:#EF5B9B;stroke-width:12;stroke-miterlimit:10;}
	.st5{fill:#EF5B9B;stroke:#EC008C;stroke-width:12;stroke-miterlimit:10;}
	.st6{fill:#EF5C9A;stroke:#EF5C9A;stroke-width:14;stroke-miterlimit:10;}
	.st7{fill:none;}
	.st8{fill:none;stroke:#000000;stroke-width:7;stroke-miterlimit:10;}
	.st9{fill:#F499C1;stroke:#F8BED5;stroke-miterlimit:10;}
	.st10{fill:#ED1967;stroke:#ED1967;stroke-miterlimit:10;}
	.st11{fill:#EF5C9A;stroke:#EF5C9A;stroke-miterlimit:10;}
	.st12{fill:#682F12;stroke:#ED1967;stroke-miterlimit:10;}
</style>
<line id="pink_6_" class="st0" x1="86.18" y1="251.21" x2="89.32" y2="389.4"/>
<line id="light_green_1_" class="st1" x1="114.31" y1="212.74" x2="117.39" y2="423.81"/>
<line id="pink_5_" class="st2" x1="146.05" y1="186.61" x2="149.88" y2="449.48"/>
<line id="green_5_" class="st3" x1="232.14" y1="148.39" x2="237.07" y2="486.39"/>
<line id="pink_4_" class="st2" x1="202.37" y1="158.15" x2="207.03" y2="477.42"/>
<line id="green_4_" class="st3" x1="174.93" y1="171.2" x2="179.23" y2="465.9"/>
<line id="pink_3_" class="st2" x1="321.64" y1="137.63" x2="326.87" y2="495.76"/>
<line id="light_green" class="st3" x1="291.1" y1="138.63" x2="296.31" y2="495.25"/>
<line id="drak_pink" class="st2" x1="261.64" y1="143.07" x2="266.74" y2="492.18"/>
<line id="green_3_" class="st4" x1="407.65" y1="149.74" x2="412.51" y2="482.46"/>
<line id="pink_2_" class="st0" x1="379.38" y1="143.18" x2="384.43" y2="489.38"/>
<line id="green_2_" class="st3" x1="351.13" y1="140.38" x2="356.28" y2="493.74"/>
<line id="pink_1_" class="st2" x1="492.09" y1="188.1" x2="495.79" y2="442.11"/>
<line id="green_1_" class="st5" x1="464.37" y1="167.43" x2="468.56" y2="454.86"/>
<line id="light_pink" class="st2" x1="438.52" y1="160.37" x2="443.06" y2="471.61"/>
<line id="pink" class="st2" x1="549.31" y1="249.26" x2="551.22" y2="379.73"/>
<line id="green" class="st6" x1="519.15" y1="210.07" x2="522.2" y2="419.26"/>
<path id="SVGID_x5F_1_x5F_" class="st7" d="M567.01,334.96c0,110.88-111.73,200.77-249.57,200.77S67.88,445.84,67.88,334.96
	c0-110.88,111.73-200.77,249.57-200.77S567.01,224.08,567.01,334.96z"/>
<text><textPath  xlink:href="#SVGID_x5F_1_x5F_" startOffset="80.2897%">
<tspan  style="font-family:'ColonnaMT'; font-size:53.7976px;">    </tspan><tspan  style="font-family:'ColonnaMT'; font-size:83.4634px;">HAPPINESS</tspan></textPath>
</text>
<ellipse class="st8" cx="317.44" cy="318.25" rx="256.42" ry="181.64"/>
<g id="ICE_CREAM">
	<g id="ICE_REAM_TOP">
		<path class="st9" d="M473.92,297.9c-6.51-0.72-13.41,4.31-19.62,9.25c-17.91,14.24-35.82,28.47-53.72,42.71
			c-9.1,7.23-18.19,14.46-27.29,21.69c-6.49,5.16-15.29,11.37-13.58,25.78c0.81,6.83,3.96,12.28,7.68,15.53
			c3.72,3.24,7.99,4.57,12.22,5.59c32.55,7.87,66.97-0.19,97.77-22.88c6.15-4.53,12.54-10.22,15.79-19.91
			c4.01-11.97,2.06-26.26,0.01-39.01c-1.21-7.52-2.45-15.13-4.7-21.91c-2.26-6.78-5.67-12.76-10.15-15.37
			C476.88,298.53,475.41,298.06,473.92,297.9z"/>
		<path class="st10" d="M493.97,277.94c-5.45,0.52-8.51,7.7-11.64,13.53c-5.04,9.4-10.09,18.79-15.13,28.18
			c10.54,3.79,19,14.4,22.29,27.95c3.29,13.55,1.34,29.75-5.15,42.67c14.51-9.62,25.96-28,30.02-48.16
			c4.05-20.16,0.6-41.61-9.04-56.21c-2.39-3.63-5.32-6.96-9.06-7.8C495.45,277.92,494.69,277.87,493.97,277.94z"/>
		<path class="st11" d="M494.99,267.62c0.14-1.55,0.2-3.11,0.16-4.67c-0.25-10.17-5.81-19.89-13.4-19.6
			c0.87,7.1-1.95,14.79-5.97,20.27c-4.02,5.48-9.12,9.17-14.11,12.76c-15.7,11.29-31.4,22.57-47.11,33.86
			c-13.07,9.39-30.32,16.87-36.64,36.87c-1.85,5.86-1.82,13.04,1.29,17.11c4.22,5.51,11.52,3.1,17.54,0.37
			c16.69-7.57,33.45-15.3,49.19-26.58c15.74-11.27,30.54-26.36,40.99-46.03c2.94-5.54,5.56-11.65,7.02-17.97
			C494.44,271.9,494.8,269.76,494.99,267.62z"/>
		<path class="st10" d="M470.87,230.83c-5.58,17.22-18.01,30.46-31.24,39.02c-13.23,8.55-27.49,13.18-41.42,18.92
			c-23.1,9.51-47.36,25.25-57.5,55.72c-3.86,11.59-4.37,25.07,0.61,34.62c4.98,9.55,16.17,13.61,24.85,7.13
			c5.69-4.24,9.37-11.9,11.84-19.52c2.47-7.62,4.04-15.6,7.07-22.96c7.79-18.95,23.8-30.73,39.26-39.14
			c15.46-8.41,31.9-15.13,44.95-29.11c6.1-6.53,11.48-15.11,12.58-24.65C482.95,241.31,478.34,231.25,470.87,230.83z"/>
		<path class="st11" d="M368.32,302.56c1.34-5.27,3.53-15.8,4.07-17.43c2.33-6.98,5.23-13.69,8.64-20.02
			c6.62-12.31,18.11-17.28,28.65-20.26c9.31-2.64,18.8-4.01,27.85-8.4c9.05-4.39,17.92-12.51,21.67-23.99
			c6.49,3.81,9.21,14.32,7.47,23.86c-1.73,9.53-7.17,17.94-13.52,23.92c-6.35,5.98-13.61,9.88-20.8,13.6
			c-10.62,5.5-21.28,10.79-31.97,15.97c-10.14,4.91-22.11,13.17-32.53,15.22C367.83,304.14,368.09,303.44,368.32,302.56z"/>
		<path class="st10" d="M417.43,205.19c2.21-7.13,3.51-8.27,9.46-10.55c5.44-2.09,11.05-2.99,16.3-1.28
			c7.69,2.6,13.63,12.84,11.04,23.18c-1.59,6.35-5.85,11.29-10.23,15.14c-15.24,13.4-33.47,17.83-51.02,21.54
			c4.97-12.01,13.29-22.02,22.89-27.55c4.07-2.34,8.84-4.47,10.83-9.62c1.35-3.51,0.85-7.82-1.18-10.21
			C423.48,203.46,420.06,203.18,417.43,205.19z"/>
		<path class="st10" d="M350.95,396.68c-0.77,4-0.88,8.42-0.5,10.43c1.09,5.82,4.58,10.49,9.04,12.12c1.66,0.61,3.48,0.81,5.24,0.19
			c1.76-0.62,3.46-2.13,4.33-4.25c0.91-2.21,0.82-4.81,0.2-6.97c-0.62-2.16-1.73-3.97-2.82-5.75c-1.96-3.19-3.91-6.38-5.87-9.57
			c-0.8-1.3-1.62-2.63-2.76-3.43C354.13,386.87,351.97,391.41,350.95,396.68z"/>
	</g>
</g>
<path class="st12" d="M352.91,393.22l134.95-7.78l-9.17,34.07c0,0-9.05,16.53-44.09-9.66c0,0-17.46,1.77,5.24,27.9
	c0,0,28.96,3.67,19.25,53.01l-43.13,116.07l-16.93-53.91c0,0-11.22-11.49,14.74-10.76c0,0,20-19.45-10.39-24.56
	c0,0-26.4,12.96-14.88-17.82l34.09,1.47c0,0,22.39-30.26-15.49-23.5l-25.44,1.47c0,0-20.06-13.33,12.03-20.51l25.31-0.7
	c0,0,17.35-26.16-17.49-26.43l-23.27,2.1C378.22,433.68,367.75,448.77,352.91,393.22z"/>
<rect x="107" y="55.3" class="st7" width="435.83" height="230.55"/>
</svg>
