<?xml version="1.0" encoding="utf-8"?>
<!-- Generator: Adobe Illustrator 23.0.3, SVG Export Plug-In . SVG Version: 6.00 Build 0)  -->
<svg version="1.1" id="Layer_1" xmlns="http://www.w3.org/2000/svg" xmlns:xlink="http://www.w3.org/1999/xlink" x="0px" y="0px"
	 viewBox="0 0 612 792" style="enable-background:new 0 0 612 792;" xml:space="preserve">
<style type="text/css">
	.st0{fill:none;}
	.st1{stroke:#D81D4D;stroke-width:7;stroke-miterlimit:10;}
	.st2{fill:#ED1967;stroke:#ED1967;stroke-miterlimit:10;}
	.st3{fill:#914220;stroke:#000000;stroke-width:3;stroke-miterlimit:10;}
</style>
<path id="SVGID_x5F_1_x5F_" class="st0" d="M567.01,334.96c0,110.88-111.73,200.77-249.57,200.77S67.88,445.84,67.88,334.96
	s111.73-200.77,249.57-200.77S567.01,224.08,567.01,334.96z"/>
<text><textPath  xlink:href="#SVGID_x5F_1_x5F_" startOffset="80.2897%">
<tspan  style="stroke:#000000;stroke-miterlimit:10; font-family:'ColonnaMT'; font-size:53.7976px;">    </tspan><tspan  style="stroke:#000000;stroke-miterlimit:10; font-family:'ColonnaMT'; font-size:83.4634px;">HAPPINESS</tspan></textPath>
</text>
<ellipse id="circle_1_" class="st1" cx="317.44" cy="318.25" rx="256.42" ry="181.64"/>
<g id="ICE_CREAM">
	<g id="ICE_REAM_TOP">
		<path class="st2" d="M473.92,296.72c-6.51-0.71-13.41,4.26-19.62,9.14c-17.91,14.08-35.82,28.15-53.72,42.23
			c-9.1,7.15-18.19,14.3-27.29,21.45c-6.49,5.1-15.29,11.24-13.58,25.49c0.81,6.75,3.96,12.14,7.68,15.35s7.99,4.52,12.22,5.53
			c32.55,7.78,66.97-0.18,97.77-22.62c6.15-4.48,12.54-10.11,15.79-19.68c4.01-11.83,2.06-25.97,0.01-38.58
			c-1.21-7.44-2.45-14.96-4.7-21.66s-5.67-12.62-10.15-15.2C476.88,297.35,475.41,296.88,473.92,296.72z"/>
		<path class="st2" d="M493.97,276.99c-5.45,0.51-8.51,7.61-11.64,13.38c-5.04,9.29-10.09,18.58-15.13,27.87
			c10.54,3.75,19,14.24,22.29,27.64s1.34,29.42-5.15,42.19c14.51-9.51,25.96-27.69,30.02-47.62c4.05-19.93,0.6-41.15-9.04-55.58
			c-2.39-3.58-5.32-6.88-9.06-7.72C495.45,276.97,494.69,276.92,493.97,276.99z"/>
		<path class="st2" d="M494.99,266.78c0.14-1.54,0.2-3.08,0.16-4.62c-0.25-10.06-5.81-19.67-13.4-19.38
			c0.87,7.02-1.95,14.63-5.97,20.04s-9.12,9.07-14.11,12.62c-15.7,11.16-31.4,22.32-47.11,33.48
			c-13.07,9.29-30.32,16.68-36.64,36.46c-1.85,5.79-1.82,12.89,1.29,16.92c4.22,5.45,11.52,3.06,17.54,0.36
			c16.69-7.49,33.45-15.13,49.19-26.28s30.54-26.07,40.99-45.52c2.94-5.48,5.56-11.52,7.02-17.77
			C494.44,271.01,494.8,268.9,494.99,266.78z"/>
		<path class="st2" d="M470.87,230.4c-5.58,17.02-18.01,30.13-31.24,38.58s-27.49,13.03-41.42,18.7c-23.1,9.4-47.36,24.97-57.5,55.1
			c-3.86,11.46-4.37,24.79,0.61,34.24c4.98,9.45,16.17,13.45,24.85,7.05c5.69-4.2,9.37-11.77,11.84-19.3
			c2.47-7.53,4.04-15.42,7.07-22.7c7.79-18.73,23.8-30.38,39.26-38.7c15.46-8.32,31.9-14.96,44.95-28.79
			c6.1-6.46,11.48-14.95,12.58-24.38S478.34,230.82,470.87,230.4z"/>
		<path class="st2" d="M368.32,301.33c1.34-5.22,3.53-15.62,4.07-17.24c2.33-6.9,5.23-13.54,8.63-19.8
			c6.62-12.18,18.11-17.09,28.65-20.04c9.31-2.61,18.8-3.96,27.85-8.3c9.05-4.34,17.92-12.37,21.67-23.72
			c6.49,3.77,9.21,14.16,7.47,23.59c-1.73,9.43-7.17,17.74-13.52,23.65c-6.35,5.92-13.61,9.77-20.8,13.45
			c-10.62,5.44-21.28,10.67-31.97,15.79c-10.14,4.86-22.11,13.02-32.53,15.05C367.83,302.89,368.09,302.2,368.32,301.33z"/>
		<path class="st2" d="M417.43,205.05c2.21-7.05,3.51-8.18,9.46-10.44c5.44-2.06,11.05-2.96,16.3-1.26
			c7.69,2.58,13.63,12.69,11.04,22.92c-1.59,6.28-5.85,11.17-10.23,14.97c-15.24,13.25-33.47,17.63-51.02,21.3
			c4.97-11.87,13.29-21.77,22.89-27.25c4.07-2.32,8.84-4.42,10.83-9.51c1.35-3.47,0.85-7.73-1.18-10.09
			C423.48,203.33,420.06,203.06,417.43,205.05z"/>
		<path class="st2" d="M350.95,394.41c-0.77,3.96-0.88,8.33-0.5,10.32c1.09,5.76,4.58,10.38,9.04,11.99c1.66,0.6,3.48,0.8,5.24,0.19
			c1.76-0.61,3.46-2.11,4.33-4.2c0.91-2.19,0.82-4.75,0.2-6.89s-1.73-3.92-2.82-5.68c-1.96-3.15-3.91-6.31-5.87-9.46
			c-0.8-1.29-1.62-2.6-2.76-3.39C354.13,384.7,351.97,389.2,350.95,394.41z"/>
	</g>
</g>
<rect x="107" y="55.3" class="st0" width="435.83" height="230.55"/>
<path id="cone" class="st3" d="M374.3,422.04c-0.27,1.79-0.4,3.66-0.38,5.62c0.08,8.73,2.9,17.17,5.69,25.44
	c23.01,68.24,46.02,136.49,69.03,204.73c19.9-94.15,39.79-188.3,59.69-282.45c-20.51,6.77-42.51,6.89-64.02,8.84
	C420.05,386.42,378.71,392.83,374.3,422.04z"/>
</svg>
